<mxfile host="www.draw.io" modified="2020-02-12T08:04:42.844Z" agent="Mozilla/5.0 (X11; Linux x86_64) AppleWebKit/537.36 (KHTML, like Gecko) Chrome/80.0.3987.87 Safari/537.36" etag="hHnYUQIpHzaO-4PcyfHS" version="12.6.7" type="github">
  <diagram name="Page-1" id="13e1069c-82ec-6db2-03f1-153e76fe0fe0">
    <mxGraphModel dx="2031" dy="1151" grid="1" gridSize="10" guides="1" tooltips="1" connect="1" arrows="1" fold="1" page="1" pageScale="1" pageWidth="1100" pageHeight="850" background="#ffffff" math="0" shadow="0">
      <root>
        <mxCell id="0"/>
        <mxCell id="1" parent="0"/>
        <mxCell id="LGssNAwwSkv_0TUU7D-E-40" value="Check credentials" style="html=1;verticalAlign=bottom;endArrow=block;exitX=0.5;exitY=0.349;exitDx=0;exitDy=0;exitPerimeter=0;" edge="1" parent="1" source="LGssNAwwSkv_0TUU7D-E-11">
          <mxGeometry width="80" relative="1" as="geometry">
            <mxPoint x="590" y="299.6" as="sourcePoint"/>
            <mxPoint x="920" y="300" as="targetPoint"/>
          </mxGeometry>
        </mxCell>
        <mxCell id="LGssNAwwSkv_0TUU7D-E-1" value="Actor" style="shape=umlActor;verticalLabelPosition=bottom;labelBackgroundColor=#ffffff;verticalAlign=top;html=1;" vertex="1" parent="1">
          <mxGeometry x="280" y="10" width="30" height="60" as="geometry"/>
        </mxCell>
        <mxCell id="LGssNAwwSkv_0TUU7D-E-3" value="User Interface" style="shape=umlLifeline;perimeter=lifelinePerimeter;whiteSpace=wrap;html=1;container=1;collapsible=0;recursiveResize=0;outlineConnect=0;size=60;" vertex="1" parent="1">
          <mxGeometry x="560" y="18" width="120" height="814" as="geometry"/>
        </mxCell>
        <mxCell id="LGssNAwwSkv_0TUU7D-E-25" value="" style="html=1;points=[];perimeter=orthogonalPerimeter;strokeWidth=2;" vertex="1" parent="LGssNAwwSkv_0TUU7D-E-3">
          <mxGeometry x="65" y="182" width="10" height="40" as="geometry"/>
        </mxCell>
        <mxCell id="LGssNAwwSkv_0TUU7D-E-26" value="Validate input" style="edgeStyle=orthogonalEdgeStyle;html=1;align=left;spacingLeft=2;endArrow=block;rounded=0;entryX=1;entryY=0;" edge="1" target="LGssNAwwSkv_0TUU7D-E-25" parent="LGssNAwwSkv_0TUU7D-E-3">
          <mxGeometry relative="1" as="geometry">
            <mxPoint x="70" y="162" as="sourcePoint"/>
            <Array as="points">
              <mxPoint x="95" y="162"/>
            </Array>
          </mxGeometry>
        </mxCell>
        <mxCell id="LGssNAwwSkv_0TUU7D-E-11" value="" style="html=1;points=[];perimeter=orthogonalPerimeter;" vertex="1" parent="LGssNAwwSkv_0TUU7D-E-3">
          <mxGeometry x="55" y="100" width="10" height="520" as="geometry"/>
        </mxCell>
        <mxCell id="LGssNAwwSkv_0TUU7D-E-5" value="" style="endArrow=none;dashed=1;html=1;" edge="1" parent="1" source="LGssNAwwSkv_0TUU7D-E-29">
          <mxGeometry width="50" height="50" relative="1" as="geometry">
            <mxPoint x="295.5" y="834" as="sourcePoint"/>
            <mxPoint x="294.5" y="104" as="targetPoint"/>
          </mxGeometry>
        </mxCell>
        <mxCell id="LGssNAwwSkv_0TUU7D-E-17" value="" style="endArrow=none;dashed=1;html=1;entryX=1;entryY=0.66;entryDx=0;entryDy=0;entryPerimeter=0;exitX=0.001;exitY=0.66;exitDx=0;exitDy=0;exitPerimeter=0;" edge="1" parent="1" source="LGssNAwwSkv_0TUU7D-E-16" target="LGssNAwwSkv_0TUU7D-E-16">
          <mxGeometry width="50" height="50" relative="1" as="geometry">
            <mxPoint x="290" y="490" as="sourcePoint"/>
            <mxPoint x="620" y="470" as="targetPoint"/>
          </mxGeometry>
        </mxCell>
        <mxCell id="LGssNAwwSkv_0TUU7D-E-29" value="" style="html=1;points=[];perimeter=orthogonalPerimeter;strokeWidth=1;" vertex="1" parent="1">
          <mxGeometry x="289" y="133" width="10" height="497" as="geometry"/>
        </mxCell>
        <mxCell id="LGssNAwwSkv_0TUU7D-E-30" value="" style="endArrow=none;dashed=1;html=1;" edge="1" parent="1" target="LGssNAwwSkv_0TUU7D-E-29">
          <mxGeometry width="50" height="50" relative="1" as="geometry">
            <mxPoint x="295" y="830" as="sourcePoint"/>
            <mxPoint x="294.5" y="104" as="targetPoint"/>
          </mxGeometry>
        </mxCell>
        <mxCell id="LGssNAwwSkv_0TUU7D-E-34" value="[Invalid input]" style="text;html=1;strokeColor=none;fillColor=none;align=center;verticalAlign=middle;whiteSpace=wrap;rounded=0;" vertex="1" parent="1">
          <mxGeometry x="300" y="530" width="80" height="20" as="geometry"/>
        </mxCell>
        <mxCell id="LGssNAwwSkv_0TUU7D-E-42" value="[Valid credentials]" style="text;html=1;strokeColor=none;fillColor=none;align=center;verticalAlign=middle;whiteSpace=wrap;rounded=0;" vertex="1" parent="1">
          <mxGeometry x="340" y="330" width="100" height="20" as="geometry"/>
        </mxCell>
        <mxCell id="LGssNAwwSkv_0TUU7D-E-44" value="user authenticated" style="html=1;verticalAlign=bottom;endArrow=open;dashed=1;endSize=8;" edge="1" parent="1" source="LGssNAwwSkv_0TUU7D-E-4">
          <mxGeometry relative="1" as="geometry">
            <mxPoint x="930.04" y="390.3599999999999" as="sourcePoint"/>
            <mxPoint x="630" y="390" as="targetPoint"/>
            <Array as="points">
              <mxPoint x="800" y="390"/>
            </Array>
          </mxGeometry>
        </mxCell>
        <mxCell id="LGssNAwwSkv_0TUU7D-E-45" value="redirect to dashboard" style="html=1;verticalAlign=bottom;endArrow=block;entryX=0.039;entryY=0.366;entryDx=0;entryDy=0;entryPerimeter=0;" edge="1" parent="1" target="LGssNAwwSkv_0TUU7D-E-16">
          <mxGeometry width="80" relative="1" as="geometry">
            <mxPoint x="610" y="420" as="sourcePoint"/>
            <mxPoint x="470" y="440" as="targetPoint"/>
          </mxGeometry>
        </mxCell>
        <mxCell id="LGssNAwwSkv_0TUU7D-E-46" value="" style="endArrow=none;dashed=1;html=1;" edge="1" parent="1">
          <mxGeometry width="50" height="50" relative="1" as="geometry">
            <mxPoint x="280" y="440" as="sourcePoint"/>
            <mxPoint x="1120" y="440" as="targetPoint"/>
          </mxGeometry>
        </mxCell>
        <mxCell id="LGssNAwwSkv_0TUU7D-E-47" value="[invalid credentials]" style="text;html=1;strokeColor=none;fillColor=none;align=center;verticalAlign=middle;whiteSpace=wrap;rounded=0;" vertex="1" parent="1">
          <mxGeometry x="300" y="440" width="110" height="20" as="geometry"/>
        </mxCell>
        <mxCell id="LGssNAwwSkv_0TUU7D-E-31" value="show invalid input error" style="html=1;verticalAlign=bottom;endArrow=open;dashed=1;endSize=8;" edge="1" parent="1">
          <mxGeometry relative="1" as="geometry">
            <mxPoint x="610" y="620" as="sourcePoint"/>
            <mxPoint x="300" y="620" as="targetPoint"/>
            <Array as="points">
              <mxPoint x="440" y="620"/>
            </Array>
          </mxGeometry>
        </mxCell>
        <mxCell id="LGssNAwwSkv_0TUU7D-E-4" value="Database" style="shape=umlLifeline;perimeter=lifelinePerimeter;whiteSpace=wrap;html=1;container=1;collapsible=0;recursiveResize=0;outlineConnect=0;size=60;" vertex="1" parent="1">
          <mxGeometry x="840" y="18" width="180" height="814" as="geometry"/>
        </mxCell>
        <mxCell id="LGssNAwwSkv_0TUU7D-E-53" value="" style="html=1;points=[];perimeter=orthogonalPerimeter;strokeWidth=1;" vertex="1" parent="LGssNAwwSkv_0TUU7D-E-4">
          <mxGeometry x="85" y="252" width="10" height="248" as="geometry"/>
        </mxCell>
        <mxCell id="LGssNAwwSkv_0TUU7D-E-8" value="&lt;font style=&quot;font-size: 10px&quot;&gt;Input login&amp;nbsp; ( Username : string , password : string)&lt;/font&gt;" style="html=1;verticalAlign=bottom;endArrow=block;" edge="1" parent="1" target="LGssNAwwSkv_0TUU7D-E-3">
          <mxGeometry width="80" relative="1" as="geometry">
            <mxPoint x="300" y="160" as="sourcePoint"/>
            <mxPoint x="370" y="160" as="targetPoint"/>
          </mxGeometry>
        </mxCell>
        <mxCell id="LGssNAwwSkv_0TUU7D-E-50" value="Authentication failed" style="html=1;verticalAlign=bottom;endArrow=open;dashed=1;endSize=8;" edge="1" parent="1">
          <mxGeometry relative="1" as="geometry">
            <mxPoint x="930" y="480" as="sourcePoint"/>
            <mxPoint x="630" y="480" as="targetPoint"/>
            <Array as="points">
              <mxPoint x="760" y="480"/>
            </Array>
          </mxGeometry>
        </mxCell>
        <mxCell id="LGssNAwwSkv_0TUU7D-E-51" value="show error message" style="html=1;verticalAlign=bottom;endArrow=block;entryX=0.039;entryY=0.366;entryDx=0;entryDy=0;entryPerimeter=0;" edge="1" parent="1">
          <mxGeometry width="80" relative="1" as="geometry">
            <mxPoint x="610.05" y="500.19" as="sourcePoint"/>
            <mxPoint x="300.00219" y="500.0019999999999" as="targetPoint"/>
          </mxGeometry>
        </mxCell>
        <mxCell id="LGssNAwwSkv_0TUU7D-E-36" value="alt" style="shape=umlFrame;whiteSpace=wrap;html=1;strokeWidth=2;" vertex="1" parent="1">
          <mxGeometry x="280" y="320" width="845" height="200" as="geometry"/>
        </mxCell>
        <mxCell id="LGssNAwwSkv_0TUU7D-E-18" value="[Valid input]" style="text;html=1;strokeColor=none;fillColor=none;align=center;verticalAlign=middle;whiteSpace=wrap;rounded=0;" vertex="1" parent="1">
          <mxGeometry x="325" y="280" width="85" height="20" as="geometry"/>
        </mxCell>
        <mxCell id="LGssNAwwSkv_0TUU7D-E-16" value="Alt" style="shape=umlFrame;whiteSpace=wrap;html=1;strokeWidth=2;width=60;height=30;" vertex="1" parent="1">
          <mxGeometry x="265" y="280" width="896.21" height="382" as="geometry"/>
        </mxCell>
      </root>
    </mxGraphModel>
  </diagram>
</mxfile>
